<svg width="24" height="24" viewBox="0 0 24 24" fill="none" xmlns="http://www.w3.org/2000/svg">
<path fill-rule="evenodd" clip-rule="evenodd" d="M7.01033 4.00002C8.33247 4.00225 9.48925 4.43108 10.41 4.89823C10.8731 5.13321 11.288 5.38396 11.6389 5.60314C11.7433 5.6684 11.8388 5.72869 11.9271 5.78441C11.952 5.80011 11.9763 5.81544 12 5.83041C12.0237 5.81544 12.048 5.80011 12.0729 5.78441C12.1612 5.72869 12.2567 5.6684 12.3611 5.60314C12.712 5.38396 13.1269 5.13321 13.59 4.89823C14.5111 4.43092 15.6683 4.00195 16.991 4.00002C18.5469 3.97351 20.0507 4.56173 21.1757 5.63723C22.303 6.71497 22.9586 8.19463 22.9997 9.75371C22.9999 9.76248 23 9.77125 23 9.78001C23 12.0683 22.2027 15.2639 21.0386 17.8792C20.4541 19.1924 19.7508 20.42 18.9607 21.3369C18.1991 22.2206 17.1952 23 16 23C15.1996 23 14.4299 22.6865 13.8492 22.45C13.8048 22.4319 13.7614 22.4143 13.7193 22.3973C13.049 22.1266 12.5305 21.94 12 21.94C11.4695 21.94 10.951 22.1266 10.2807 22.3973C10.2386 22.4143 10.1952 22.4319 10.1508 22.45C9.57011 22.6865 8.80036 23 8 23C6.80476 23 5.80092 22.2206 5.03934 21.3369C4.24921 20.42 3.54595 19.1924 2.96141 17.8792C1.79734 15.2639 1 12.0683 1 9.78001L1.00029 9.75574C1.03819 8.19507 1.69308 6.71304 2.8215 5.63427C3.94743 4.55788 5.45323 3.97051 7.01033 4.00002ZM6.9793 5.9998C5.94759 5.97844 4.94947 6.36684 4.20356 7.07993C3.46049 7.7903 3.02806 8.76519 3.00001 9.79249C3.00302 11.7242 3.70499 14.6314 4.78859 17.0659C5.32905 18.2801 5.93829 19.3163 6.55441 20.0313C7.19908 20.7794 7.69524 21 8 21C8.38843 21 8.81233 20.8333 9.53182 20.5428C10.174 20.2835 11.0305 19.94 12 19.94C12.9695 19.94 13.826 20.2835 14.4682 20.5428C15.1877 20.8333 15.6116 21 16 21C16.3048 21 16.8009 20.7794 17.4456 20.0313C18.0617 19.3163 18.6709 18.2801 19.2114 17.0659C20.2948 14.6318 20.9967 11.7253 21 9.79355C20.9696 8.76677 20.5364 7.79297 19.7936 7.08289C19.0478 6.36987 18.0503 5.98057 17.0187 5.99984L17 6.00001C16.1064 6.00001 15.2668 6.29016 14.495 6.6818C14.1106 6.87682 13.7542 7.09107 13.4207 7.29939C13.343 7.34792 13.2638 7.39796 13.1843 7.44816C12.9422 7.60106 12.6978 7.75538 12.4886 7.87252C12.185 8.04251 11.815 8.04251 11.5114 7.87252C11.3022 7.75538 11.0578 7.60106 10.8157 7.44816C10.7362 7.39796 10.657 7.34792 10.5793 7.29939C10.2458 7.09107 9.88942 6.87682 9.50503 6.6818C8.73315 6.29016 7.89355 6.00001 7 6.00001L6.9793 5.9998Z" fill="black"/>
<path fill-rule="evenodd" clip-rule="evenodd" d="M9.10558 1.55276C9.35257 1.05878 9.95324 0.858558 10.4472 1.10555C11.9388 1.85135 13 3.82925 13 6.99997C13 7.55226 12.5523 7.99997 12 7.99997C11.4477 7.99997 11 7.55226 11 6.99997C11 4.1707 10.0612 3.1486 9.55279 2.8944C9.05881 2.64741 8.85859 2.04674 9.10558 1.55276Z" fill="black"/>
</svg>
