<svg width="32" height="32" viewBox="0 0 32 32" fill="none" xmlns="http://www.w3.org/2000/svg">
<rect width="32" height="32" fill="white"/>
<path d="M19.3327 5.99996C19.3327 7.84091 17.8403 9.33329 15.9993 9.33329C14.1584 9.33329 12.666 7.84091 12.666 5.99996C12.666 4.15901 14.1584 2.66663 15.9993 2.66663C17.8403 2.66663 19.3327 4.15901 19.3327 5.99996Z" stroke="#0F172A" stroke-width="2"/>
<path d="M28 22.6667L26.4564 22.1467C26.1535 22.0447 25.8653 21.9023 25.5997 21.7234L25.4647 21.6325C24.5496 21.0161 24 19.9783 24 18.867C24 18.383 23.9484 17.9095 23.8501 17.4526M4 22.6667L5.5436 22.1467C5.84651 22.0447 6.13461 21.9023 6.40029 21.7234L6.53527 21.6325C7.45035 21.0161 8 19.9783 8 18.867C8 15.6174 10.325 12.8442 13.4971 12.31L14.6848 12.11C15.3333 12.0001 16.6667 11.9999 17.3152 12.11L18.5029 12.31C19.0273 12.3983 19.5285 12.5478 20 12.7506" stroke="#0F172A" stroke-width="2" stroke-linecap="round" stroke-linejoin="round"/>
<path d="M12.6673 21.3334L11.4346 22.977C11.2379 23.2392 11.1395 23.3704 11.0291 23.4859C10.7558 23.7716 10.4224 23.993 10.053 24.1339C9.9038 24.191 9.74472 24.2307 9.42662 24.3102L7.03541 24.908C6.03546 25.158 5.33398 26.0564 5.33398 27.0871C5.33398 28.3278 6.33965 29.3334 7.5802 29.3334H8.49188C10.7695 29.3334 12.9856 28.5947 14.8077 27.2282L17.334 25.3334M19.334 21.3334L20.3029 22.6252C20.7608 23.2359 20.9898 23.5411 21.287 23.7667C21.3764 23.8346 21.47 23.8967 21.5672 23.9527C21.8905 24.1391 22.2606 24.2318 23.001 24.4168L24.9658 24.908C25.9658 25.158 26.6673 26.0564 26.6673 27.0871C26.6673 28.3278 25.6617 29.3334 24.421 29.3334H23.1708C22.421 29.3334 22.0462 29.3334 21.6745 29.3126C20.5765 29.2512 19.4903 29.0543 18.4407 28.7262C18.0853 28.6151 17.7344 28.4835 17.0324 28.2203L14.6673 27.3334" stroke="#0F172A" stroke-width="2" stroke-linecap="round" stroke-linejoin="round"/>
</svg>
