<svg width="32" height="32" viewBox="0 0 32 32" fill="none" xmlns="http://www.w3.org/2000/svg">
<rect width="32" height="32" fill="white"/>
<path d="M19.3333 9.33329C21.1743 9.33329 22.6667 7.84091 22.6667 5.99996C22.6667 4.15901 21.1743 2.66663 19.3333 2.66663C17.4924 2.66663 16 4.15901 16 5.99996C16 7.84091 17.4924 9.33329 19.3333 9.33329Z" stroke="#0F172A" stroke-width="2"/>
<path d="M6.66602 29.3336L11.7974 27.5032C12.4052 27.2864 12.9137 26.8567 13.2287 26.2936M25.3327 29.3336V22.3575C25.3327 20.7141 23.8604 19.4617 22.2383 19.7253L20.8883 19.9448M11.3327 18.6669L10.5139 17.8687C9.4931 16.8733 9.81182 15.16 11.1223 14.5984L14.3967 13.1951C15.7164 12.6295 17.1845 13.5976 17.1845 15.0335V18.5273C17.1845 18.9832 17.0676 19.4315 16.8451 19.8293L15.9409 21.4453" stroke="#0F172A" stroke-width="2" stroke-linecap="round" stroke-linejoin="round"/>
</svg>
