<svg width="44" height="44" viewBox="0 0 44 44" fill="none" xmlns="http://www.w3.org/2000/svg">
<path d="M26.5833 12.8334C29.1146 12.8334 31.1667 10.7814 31.1667 8.25008C31.1667 5.71878 29.1146 3.66675 26.5833 3.66675C24.052 3.66675 22 5.71878 22 8.25008C22 10.7814 24.052 12.8334 26.5833 12.8334Z" stroke="#0F172A" stroke-width="2.5"/>
<path d="M9.16602 40.3337L16.2217 37.8169C17.0574 37.5188 17.7566 36.9279 18.1898 36.1537M34.8327 40.3337V30.7415C34.8327 28.4819 32.8083 26.7599 30.5779 27.1223L28.7216 27.4241M15.5827 25.667L14.4569 24.5694C13.0533 23.2008 13.4915 20.845 15.2934 20.0728L19.7957 18.1433C21.6103 17.3656 23.629 18.6967 23.629 20.671V25.4751C23.629 26.1019 23.4682 26.7183 23.1622 27.2653L21.919 29.4873" stroke="#0F172A" stroke-width="2.5" stroke-linecap="round" stroke-linejoin="round"/>
</svg>
