<svg width="32" height="32" viewBox="0 0 32 32" fill="none" xmlns="http://www.w3.org/2000/svg">
<rect width="32" height="32" fill="white"/>
<path d="M24.6673 9.33329C26.5083 9.33329 28.0006 7.84091 28.0006 5.99996C28.0006 4.15901 26.5083 2.66663 24.6673 2.66663C22.8264 2.66663 21.334 4.15901 21.334 5.99996C21.334 7.84091 22.8264 9.33329 24.6673 9.33329Z" stroke="#0F172A" stroke-width="2"/>
<path d="M12 22.6666L10.6656 24.2678C9.68267 25.4474 9.19117 26.0372 8.51927 26.352C7.84736 26.6666 7.07964 26.6666 5.54417 26.6666H4" stroke="#0F172A" stroke-width="2" stroke-linecap="round"/>
<path d="M7.74241 12.6298C8.2226 12.357 8.39069 11.7465 8.11785 11.2663C7.84503 10.7861 7.23457 10.618 6.75439 10.8909L7.74241 12.6298ZM4.84015 11.9785C4.35996 12.2513 4.19187 12.8618 4.46471 13.342C4.73753 13.8222 5.34799 13.9903 5.82817 13.7174L4.84015 11.9785ZM28.0008 16.9995C28.5531 16.9995 29.0008 16.5518 29.0008 15.9995C29.0008 15.4472 28.5531 14.9995 28.0008 14.9995V16.9995ZM11.6516 8.36334C11.1341 8.55622 10.8709 9.1321 11.0638 9.64961C11.2567 10.1671 11.8325 10.4303 12.3501 10.2374L11.6516 8.36334ZM6.75439 10.8909L4.84015 11.9785L5.82817 13.7174L7.74241 12.6298L6.75439 10.8909ZM20.1691 14.0547L20.2522 14.1794L21.9163 13.0699L21.8331 12.9453L20.1691 14.0547ZM14.7291 7.87641C14.5926 7.86224 14.4715 7.8536 14.3648 7.84886L14.2762 9.8469C14.342 9.84981 14.4238 9.85546 14.5227 9.86573L14.7291 7.87641ZM25.5218 16.9995H28.0008V14.9995H25.5218V16.9995ZM14.3648 7.84886C14.014 7.83332 13.6831 7.86844 13.4038 7.90701L13.6774 9.88821C13.9148 9.85542 14.1056 9.83934 14.2762 9.8469L14.3648 7.84886ZM20.2522 14.1794C21.4268 15.9412 23.4042 16.9995 25.5218 16.9995V14.9995C24.073 14.9995 22.7199 14.2754 21.9163 13.0699L20.2522 14.1794ZM21.8331 12.9453C20.2632 10.5905 17.906 8.20617 14.7291 7.87641L14.5227 9.86573C16.7927 10.1014 18.7014 11.8532 20.1691 14.0547L21.8331 12.9453ZM12.3501 10.2374C12.8312 10.0581 13.2593 9.94593 13.6774 9.88821L13.4038 7.90701C12.8151 7.98829 12.2437 8.14269 11.6516 8.36334L12.3501 10.2374Z" fill="#0F172A"/>
<path d="M18.6668 11.3334L15.7058 15.0342C14.5906 16.428 14.0328 17.1251 13.9439 17.884C13.8939 18.3107 13.9478 18.7431 14.1008 19.1446C14.3731 19.8586 15.0846 20.3975 16.5076 21.4755C17.5915 22.2967 18.1334 22.7072 18.5007 23.2439C18.7102 23.55 18.876 23.8839 18.9936 24.2356C19.1996 24.8526 19.1996 25.5324 19.1996 26.8923V29.3331" stroke="#0F172A" stroke-width="2" stroke-linecap="round"/>
</svg>
