<svg width="32" height="32" viewBox="0 0 32 32" fill="none" xmlns="http://www.w3.org/2000/svg">
<rect width="32" height="32" fill="white"/>
<path d="M20.0007 7.99996C21.4734 7.99996 22.6673 6.80605 22.6673 5.33329C22.6673 3.86053 21.4734 2.66663 20.0007 2.66663C18.5279 2.66663 17.334 3.86053 17.334 5.33329C17.334 6.80605 18.5279 7.99996 20.0007 7.99996Z" stroke="#0F172A" stroke-width="2"/>
<path d="M14.6667 21.3334V20.035C14.6667 19.877 14.6667 19.7981 14.6639 19.7226C14.6229 18.6414 14.146 17.623 13.3416 16.8996C13.2854 16.849 13.2247 16.7985 13.1033 16.6973C12.9255 16.549 12.8365 16.475 12.7677 16.4088C11.7459 15.4252 11.6728 13.8138 12.6014 12.7417C12.6639 12.6695 12.7458 12.5876 12.9095 12.4239L13.3484 11.9849C14.6185 10.7149 14.2043 8.56378 12.5534 7.85628C11.7891 7.52873 10.9129 7.59621 10.2077 8.0369L6 10.6667" stroke="#0F172A" stroke-width="2" stroke-linecap="round"/>
<path d="M4 20.6666H4.50491C6.31592 20.6666 8.05276 19.9472 9.33333 18.6666" stroke="#0F172A" stroke-width="2" stroke-linecap="round"/>
<path d="M16.666 13.3334C17.9643 13.7662 19.3677 13.7662 20.666 13.3334" stroke="#0F172A" stroke-width="2" stroke-linecap="round"/>
<path d="M15.0497 29.3328H4.11514C3.3148 29.3328 2.66602 28.684 2.66602 27.8837C2.66602 27.1797 3.17192 26.5776 3.86534 26.4563L25.4072 22.6864C27.4561 22.3279 29.3327 23.9045 29.3327 25.9845C29.3327 27.8337 27.8336 29.3328 25.9844 29.3328H19.9993" stroke="#0F172A" stroke-width="2" stroke-linecap="round" stroke-linejoin="round"/>
<path d="M24.5075 13.2134C24.4256 13.7596 24.8019 14.2688 25.348 14.3507C25.8943 14.4325 26.4035 14.0563 26.4853 13.5101L24.5075 13.2134ZM29.5301 10.3139C30.0717 10.2056 30.4229 9.67877 30.3145 9.13721C30.2063 8.59565 29.6795 8.24443 29.1379 8.35274L29.5301 10.3139ZM25.7375 18.4959C25.8193 17.9497 25.4431 17.4405 24.8969 17.3585C24.3507 17.2767 23.8415 17.6531 23.7596 18.1992L25.7375 18.4959ZM26.4853 13.5101C26.7255 11.9096 27.9431 10.6313 29.5301 10.3139L29.1379 8.35274C26.7244 8.83543 24.8725 10.7794 24.5075 13.2134L26.4853 13.5101ZM24.9896 23.4817L25.7375 18.4959L23.7596 18.1992L23.0117 23.1849L24.9896 23.4817Z" fill="#0F172A"/>
</svg>
