<svg width="32" height="32" viewBox="0 0 32 32" fill="none" xmlns="http://www.w3.org/2000/svg">
<path fill-rule="evenodd" clip-rule="evenodd" d="M30.2758 23.6095C30.7965 23.0888 30.7965 22.2446 30.2758 21.7239L18.9425 10.3905C18.4218 9.86982 17.5776 9.86982 17.0569 10.3905L11.333 16.1144L3.60915 8.39052C3.08845 7.86982 2.24423 7.86982 1.72353 8.39052C1.20283 8.91122 1.20283 9.75544 1.72353 10.2761L10.3902 18.9428C10.9109 19.4635 11.7551 19.4635 12.2758 18.9428L17.9997 13.219L28.3902 23.6095C28.9109 24.1302 29.7551 24.1302 30.2758 23.6095Z" fill="#0F172A"/>
<path fill-rule="evenodd" clip-rule="evenodd" d="M20 22.6667C20 23.403 20.597 24 21.3333 24H29.3333C30.0697 24 30.6667 23.403 30.6667 22.6667V14.6667C30.6667 13.9303 30.0697 13.3333 29.3333 13.3333C28.597 13.3333 28 13.9303 28 14.6667V21.3333H21.3333C20.597 21.3333 20 21.9303 20 22.6667Z" fill="#0F172A"/>
</svg>
