<svg width="32" height="32" viewBox="0 0 32 32" fill="none" xmlns="http://www.w3.org/2000/svg">
<path fill-rule="evenodd" clip-rule="evenodd" d="M30.2758 8.39052C30.7965 8.91122 30.7965 9.75544 30.2758 10.2761L18.9425 21.6095C18.4218 22.1302 17.5776 22.1302 17.0569 21.6095L11.333 15.8856L3.60915 23.6095C3.08845 24.1302 2.24423 24.1302 1.72353 23.6095C1.20283 23.0888 1.20283 22.2446 1.72353 21.7239L10.3902 13.0572C10.9109 12.5365 11.7551 12.5365 12.2758 13.0572L17.9997 18.781L28.3902 8.39052C28.9109 7.86983 29.7551 7.86983 30.2758 8.39052Z" fill="#0F172A"/>
<path fill-rule="evenodd" clip-rule="evenodd" d="M20 9.33333C20 8.59695 20.597 8 21.3333 8H29.3333C30.0697 8 30.6667 8.59695 30.6667 9.33333V17.3333C30.6667 18.0697 30.0697 18.6667 29.3333 18.6667C28.597 18.6667 28 18.0697 28 17.3333V10.6667H21.3333C20.597 10.6667 20 10.0697 20 9.33333Z" fill="#0F172A"/>
</svg>
