<svg width="24" height="24" viewBox="0 0 24 24" fill="none" xmlns="http://www.w3.org/2000/svg">
<path fill-rule="evenodd" clip-rule="evenodd" d="M4.25703 2.33068C4.44666 2.12018 4.71668 2 5 2H19C19.2834 2 19.5535 2.12027 19.7432 2.33089C19.9328 2.54152 20.0242 2.82273 19.9945 3.10459L18.1845 20.315C18.1066 21.0523 17.7585 21.7346 17.2073 22.2304C16.6563 22.7261 15.9412 23.0003 15.2 23C15.1998 23 15.1997 23 15.1995 23H8.80236C8.05952 23.0033 7.34182 22.7309 6.78824 22.2355C6.23387 21.7393 5.88364 21.0548 5.80553 20.315L4.00543 3.10402C3.97596 2.82224 4.0674 2.54118 4.25703 2.33068ZM6.11005 4L7.79448 20.105C7.7945 20.1052 7.79452 20.1054 7.79454 20.1056C7.82069 20.352 7.9374 20.5799 8.12205 20.7452C8.30684 20.9106 8.54649 21.0014 8.79448 21C8.79632 21 8.79816 21 8.8 21H15.2005C15.4477 21.0001 15.6861 20.9087 15.8698 20.7435C16.0535 20.5783 16.1695 20.351 16.1955 20.1054C16.1955 20.1053 16.1955 20.1053 16.1955 20.1052C16.1955 20.1051 16.1955 20.1051 16.1955 20.105L17.8893 4H6.11005Z" fill="black"/>
<path fill-rule="evenodd" clip-rule="evenodd" d="M9.00006 12C8.13458 12 7.29244 12.2807 6.60006 12.8C6.15823 13.1314 5.53143 13.0418 5.20006 12.6C4.86869 12.1582 4.95823 11.5314 5.40006 11.2C6.43864 10.4211 7.70184 10 9.00006 10C10.2983 10 11.5615 10.4211 12.6001 11.2C13.2924 11.7193 14.1346 12 15.0001 12C15.8655 12 16.7077 11.7193 17.4001 11.2C17.8419 10.8686 18.4687 10.9582 18.8001 11.4C19.1314 11.8418 19.0419 12.4686 18.6001 12.8C17.5615 13.5789 16.2983 14 15.0001 14C13.7018 14 12.4386 13.5789 11.4001 12.8C10.7077 12.2807 9.86554 12 9.00006 12Z" fill="black"/>
</svg>
